<?xml version="1.0" encoding="utf-8"?>
<!-- Generator: Adobe Illustrator 26.0.2, SVG Export Plug-In . SVG Version: 6.00 Build 0)  -->
<svg version="1.1" id="Layer_1" xmlns="http://www.w3.org/2000/svg" xmlns:xlink="http://www.w3.org/1999/xlink" x="0px" y="0px"
	 viewBox="0 0 800 400" style="enable-background:new 0 0 800 400;" xml:space="preserve">
<style type="text/css">
	.st0{fill:#FF004F;}
	.st1{fill:#FFFFFF;}
	.st2{fill:#00F2EA;}
</style>
<rect width="800" height="400"/>
<g>
	<path class="st0" d="M245.6,179.7c9.4,6.7,20.9,10.7,33.4,10.7v-23.9c-2.4,0-4.7-0.2-7-0.7v18.8c-12.4,0-24-4-33.4-10.7v48.9
		c0,24.4-19.8,44.2-44.3,44.2c-9.1,0-17.6-2.8-24.6-7.5c8,8.2,19.2,13.3,31.7,13.3c24.5,0,44.3-19.8,44.3-44.2L245.6,179.7
		L245.6,179.7z M254.2,155.6c-4.8-5.2-8-12-8.6-19.5V133h-6.6C240.6,142.5,246.3,150.7,254.2,155.6L254.2,155.6z M185.1,240.8
		c-2.7-3.5-4.1-7.8-4.1-12.3c0-11.2,9.1-20.2,20.3-20.2c2.1,0,4.2,0.3,6.1,0.9v-24.5c-2.3-0.3-4.7-0.5-7-0.4v19
		c-2-0.6-4.1-0.9-6.1-0.9c-11.2,0-20.3,9.1-20.3,20.2C174,230.6,178.5,237.4,185.1,240.8z"/>
	<path class="st1" d="M238.5,173.9c9.4,6.7,20.9,10.7,33.4,10.7v-18.8c-6.9-1.5-13.1-5.1-17.7-10.2c-7.9-4.9-13.6-13.1-15.3-22.6
		h-17.4v95.6c0,11.1-9.1,20.2-20.3,20.2c-6.6,0-12.4-3.1-16.1-8c-6.6-3.3-11.1-10.2-11.1-18.1c0-11.2,9.1-20.2,20.3-20.2
		c2.1,0,4.2,0.3,6.1,0.9v-19c-24,0.5-43.3,20.1-43.3,44.2c0,12,4.8,23,12.6,30.9c7,4.7,15.5,7.5,24.6,7.5
		c24.4,0,44.3-19.8,44.3-44.2L238.5,173.9L238.5,173.9z"/>
	<path class="st2" d="M271.9,165.7v-5.1c-6.3,0-12.4-1.7-17.7-5.1C258.9,160.7,265.1,164.3,271.9,165.7z M238.9,133
		c-0.2-0.9-0.3-1.8-0.4-2.7v-3.1h-24.1v95.6c0,11.1-9.1,20.2-20.3,20.2c-3.3,0-6.4-0.8-9.1-2.2c3.7,4.9,9.5,8,16.1,8
		c11.2,0,20.2-9,20.3-20.2V133H238.9z M200.3,184.4v-5.4c-2-0.3-4-0.4-6.1-0.4c-24.5,0-44.3,19.8-44.3,44.2
		c0,15.3,7.8,28.8,19.6,36.8c-7.8-8-12.6-18.9-12.6-30.9C157,204.5,176.3,184.9,200.3,184.4z"/>
	<path class="st0" d="M551.1,247c17.5,0,31.7-14.1,31.7-31.4c0-17.4-14.2-31.4-31.7-31.4h-4.8c17.5,0,31.7,14.1,31.7,31.4
		S563.8,247,546.3,247H551.1z"/>
	<path class="st2" d="M545.9,184.1h-4.8c-17.5,0-31.7,14.1-31.7,31.4s14.2,31.4,31.7,31.4h4.8c-17.5,0-31.7-14.1-31.7-31.4
		C514.2,198.2,528.4,184.1,545.9,184.1z"/>
	<path class="st1" d="M305,169.9v15.9h18.7v60.7h18.7v-60.3h15.2l5.2-16.4L305,169.9L305,169.9z M457.8,169.9v15.9h18.7v60.7h18.7
		v-60.3h15.2l5.2-16.4L457.8,169.9L457.8,169.9z M366.2,179c0-5,4.1-9,9.1-9c5,0,9.1,4,9.1,9c0,5-4.1,9-9.1,9
		C370.3,188,366.2,184,366.2,179z M366.2,194.5h18.2v52.1h-18.2V194.5z M392.2,169.9v76.6h18.2v-19.8l5.6-5.2l17.8,25.4h19.5
		l-25.6-37l23-22.4h-22.1l-18.2,18.1v-35.7H392.2z M588.8,169.9v76.6H607v-19.8l5.6-5.2l17.8,25.4H650l-25.6-37l23-22.4h-22.1
		L607,205.7v-35.7H588.8z"/>
	<path class="st1" d="M546.3,247c17.5,0,31.7-14.1,31.7-31.4c0-17.4-14.2-31.4-31.7-31.4h-0.4c-17.5,0-31.7,14.1-31.7,31.4
		s14.2,31.4,31.7,31.4H546.3z M530.7,215.6c0-8.4,6.9-15.3,15.4-15.3c8.5,0,15.4,6.8,15.4,15.3s-6.9,15.3-15.4,15.3
		C537.6,230.8,530.7,224,530.7,215.6z"/>
</g>
</svg>
