<?xml version="1.0" encoding="utf-8"?>
<!-- Generator: Adobe Illustrator 26.0.2, SVG Export Plug-In . SVG Version: 6.00 Build 0)  -->
<svg version="1.1" id="Layer_1" xmlns="http://www.w3.org/2000/svg" xmlns:xlink="http://www.w3.org/1999/xlink" x="0px" y="0px"
	 viewBox="0 0 800 400" style="enable-background:new 0 0 800 400;" xml:space="preserve">
<style type="text/css">
	.st0{fill:#1DB954;}
	.st1{fill:#FFFFFF;}
</style>
<rect class="st0" width="800" height="400"/>
<g>
	<g>
		<g>
			<path class="st1" d="M204.5,116.3c-46.2,0-83.7,37.5-83.7,83.7c0,46.3,37.5,83.7,83.7,83.7c46.3,0,83.7-37.5,83.7-83.7
				C288.3,153.7,250.8,116.3,204.5,116.3z M242.9,237c-1.5,2.5-4.7,3.2-7.2,1.7c-19.7-12-44.4-14.7-73.6-8.1
				c-2.8,0.6-5.6-1.1-6.2-3.9c-0.6-2.8,1.1-5.6,3.9-6.2c31.9-7.3,59.3-4.2,81.3,9.3C243.7,231.4,244.4,234.6,242.9,237z
				 M253.2,214.2c-1.9,3.1-5.9,4-9,2.2c-22.5-13.8-56.8-17.8-83.4-9.8c-3.5,1-7.1-0.9-8.1-4.3c-1-3.5,0.9-7.1,4.4-8.1
				c30.4-9.2,68.2-4.8,94.1,11.1C254.1,207.2,255.1,211.2,253.2,214.2z M254.1,190.5c-27-16-71.5-17.5-97.3-9.7
				c-4.1,1.3-8.5-1.1-9.8-5.2c-1.3-4.1,1.1-8.5,5.2-9.8c29.6-9,78.8-7.2,109.8,11.2c3.7,2.2,4.9,7,2.7,10.7
				C262.6,191.5,257.8,192.7,254.1,190.5z"/>
		</g>
	</g>
	<g>
		<g>
			<path class="st1" d="M348.6,193.6c-14.5-3.4-17-5.9-17-11c0-4.8,4.5-8,11.2-8c6.5,0,13,2.5,19.8,7.5c0.2,0.2,0.5,0.2,0.7,0.2
				c0.3,0,0.5-0.2,0.6-0.4l7.1-10c0.3-0.4,0.2-1-0.2-1.3c-8.1-6.5-17.2-9.6-27.8-9.6c-15.6,0-26.5,9.4-26.5,22.8
				c0,14.4,9.4,19.5,25.7,23.4c13.8,3.2,16.2,5.9,16.2,10.6c0,5.3-4.7,8.6-12.3,8.6c-8.4,0-15.3-2.8-23-9.5
				c-0.2-0.2-0.5-0.2-0.7-0.2c-0.3,0-0.5,0.1-0.6,0.3l-7.9,9.4c-0.3,0.4-0.3,1,0.1,1.3c9,8,20,12.2,31.9,12.2
				c16.8,0,27.7-9.2,27.7-23.4C373.4,204.5,366.2,197.9,348.6,193.6z"/>
			<path class="st1" d="M411.5,179.3c-7.3,0-13.3,2.9-18.2,8.8v-6.6c0-0.5-0.4-0.9-0.9-0.9h-12.9c-0.5,0-0.9,0.4-0.9,0.9V255
				c0,0.5,0.4,0.9,0.9,0.9h12.9c0.5,0,0.9-0.4,0.9-0.9v-23.2c4.9,5.5,10.9,8.2,18.2,8.2c13.5,0,27.3-10.4,27.3-30.4
				C438.8,189.7,425,179.3,411.5,179.3z M423.7,209.7c0,10.2-6.3,17.2-15.2,17.2c-8.9,0-15.5-7.4-15.5-17.2
				c0-9.8,6.7-17.2,15.5-17.2C417.3,192.4,423.7,199.7,423.7,209.7z"/>
			<path class="st1" d="M473.9,179.3c-17.4,0-31.1,13.4-31.1,30.6c0,17,13.6,30.3,30.9,30.3c17.5,0,31.2-13.4,31.2-30.5
				C504.9,192.6,491.3,179.3,473.9,179.3z M473.9,227c-9.3,0-16.3-7.5-16.3-17.3c0-9.9,6.8-17.1,16.1-17.1c9.3,0,16.4,7.5,16.4,17.4
				C490.1,219.8,483.3,227,473.9,227z"/>
			<path class="st1" d="M542.2,180.5h-14.2v-14.6c0-0.5-0.4-0.9-0.9-0.9H514c-0.5,0-0.9,0.4-0.9,0.9v14.6h-6.2
				c-0.5,0-0.9,0.4-0.9,0.9v11.1c0,0.5,0.4,0.9,0.9,0.9h6.2v28.8c0,11.6,5.8,17.5,17.2,17.5c4.6,0,8.5-1,12.1-3
				c0.3-0.2,0.5-0.5,0.5-0.8v-10.6c0-0.3-0.2-0.6-0.4-0.8c-0.3-0.2-0.6-0.2-0.9,0c-2.5,1.3-4.9,1.8-7.6,1.8c-4.2,0-6-1.9-6-6.1
				v-26.8h14.2c0.5,0,0.9-0.4,0.9-0.9v-11.1C543.1,180.9,542.7,180.5,542.2,180.5z"/>
			<path class="st1" d="M591.8,180.5v-1.8c0-5.3,2-7.6,6.5-7.6c2.7,0,4.9,0.5,7.3,1.3c0.3,0.1,0.6,0,0.9-0.1
				c0.2-0.2,0.4-0.5,0.4-0.8v-10.9c0-0.4-0.3-0.8-0.7-0.9c-2.6-0.8-5.8-1.5-10.8-1.5c-12,0-18.3,6.7-18.3,19.5v2.7H571
				c-0.5,0-1,0.4-1,0.9v11.2c0,0.5,0.4,0.9,1,0.9h6.2v44.4c0,0.5,0.4,0.9,0.9,0.9h12.9c0.5,0,0.9-0.4,0.9-0.9v-44.4h12.1l18.5,44.4
				c-2.1,4.7-4.2,5.6-7,5.6c-2.3,0-4.7-0.7-7.1-2c-0.2-0.1-0.5-0.1-0.8-0.1c-0.2,0.1-0.5,0.3-0.6,0.5l-4.4,9.6c-0.2,0.5,0,1,0.4,1.2
				c4.6,2.5,8.7,3.5,13.8,3.5c9.6,0,14.8-4.5,19.5-16.4l22.5-58c0.1-0.3,0.1-0.6-0.1-0.9c-0.2-0.3-0.5-0.4-0.8-0.4h-13.5
				c-0.4,0-0.8,0.3-0.9,0.6l-13.8,39.4l-15.1-39.5c-0.1-0.4-0.5-0.6-0.9-0.6H591.8z"/>
			<path class="st1" d="M563,180.5h-12.9c-0.5,0-0.9,0.4-0.9,0.9v56.5c0,0.5,0.4,0.9,0.9,0.9H563c0.5,0,0.9-0.4,0.9-0.9v-56.5
				C564,180.9,563.6,180.5,563,180.5z"/>
			<path class="st1" d="M556.6,154.8c-5.1,0-9.3,4.2-9.3,9.3c0,5.1,4.2,9.3,9.3,9.3c5.1,0,9.3-4.2,9.3-9.3
				C565.9,158.9,561.8,154.8,556.6,154.8z"/>
		</g>
		<g>
			<path class="st1" d="M670.1,198.7c-5.1,0-9.1-4.1-9.1-9.1c0-5,4-9.2,9.2-9.2c5.1,0,9.1,4.1,9.1,9.1
				C679.2,194.5,675.2,198.7,670.1,198.7z M670.1,181.3c-4.7,0-8.2,3.7-8.2,8.3c0,4.5,3.5,8.2,8.2,8.2c4.7,0,8.2-3.7,8.2-8.3
				C678.3,184.9,674.7,181.3,670.1,181.3z M672.1,190.4l2.6,3.6h-2.2l-2.3-3.3h-2v3.3h-1.8v-9.6h4.3c2.2,0,3.7,1.1,3.7,3.1
				C674.3,189.1,673.4,190,672.1,190.4z M670.6,186.1h-2.4v3h2.4c1.2,0,1.9-0.6,1.9-1.5C672.5,186.6,671.8,186.1,670.6,186.1z"/>
		</g>
	</g>
</g>
</svg>
