<?xml version="1.0" encoding="utf-8"?>
<!-- Generator: Adobe Illustrator 26.0.2, SVG Export Plug-In . SVG Version: 6.00 Build 0)  -->
<svg version="1.1" id="Layer_1" xmlns="http://www.w3.org/2000/svg" xmlns:xlink="http://www.w3.org/1999/xlink" x="0px" y="0px"
	 viewBox="0 0 800 400" style="enable-background:new 0 0 800 400;" xml:space="preserve">
<style type="text/css">
	.st0{fill:#5865F2;}
	.st1{clip-path:url(#SVGID_00000165938670020821380260000016983889652623316642_);}
	.st2{clip-path:url(#SVGID_00000126323805804112259210000011088282859968563635_);}
	.st3{fill:#FFFFFF;}
</style>
<rect class="st0" width="800" height="400"/>
<g>
	<defs>
		<rect id="SVGID_1_" x="100.9" y="142" width="600" height="116"/>
	</defs>
	<clipPath id="SVGID_00000024709757434981504130000018073588108900028320_">
		<use xlink:href="#SVGID_1_"  style="overflow:visible;"/>
	</clipPath>
	<g style="clip-path:url(#SVGID_00000024709757434981504130000018073588108900028320_);">
		<g>
			<defs>
				<rect id="SVGID_00000061468055851307805420000005488474319227343508_" x="100.9" y="142" width="600" height="116"/>
			</defs>
			<clipPath id="SVGID_00000008867206704412918020000016687654498885007530_">
				<use xlink:href="#SVGID_00000061468055851307805420000005488474319227343508_"  style="overflow:visible;"/>
			</clipPath>
			<g style="clip-path:url(#SVGID_00000008867206704412918020000016687654498885007530_);">
				<path class="st3" d="M227.8,151.7c-9.7-4.5-20.1-7.8-30.9-9.7c-1.3,2.4-2.9,5.6-4,8.2c-11.5-1.7-23-1.7-34.3,0
					c-1.1-2.6-2.7-5.8-4-8.2c-10.9,1.9-21.2,5.2-30.9,9.7c-19.6,29.6-24.9,58.4-22.2,86.8c13,9.7,25.6,15.6,37.9,19.4
					c3.1-4.2,5.8-8.7,8.1-13.4c-4.5-1.7-8.7-3.8-12.8-6.2c1.1-0.8,2.1-1.6,3.1-2.5c24.7,11.5,51.5,11.5,75.8,0
					c1,0.9,2.1,1.7,3.1,2.5c-4.1,2.4-8.3,4.5-12.8,6.2c2.3,4.7,5.1,9.2,8.1,13.4c12.4-3.9,25-9.7,38-19.4
					C253.2,205.6,244.8,177,227.8,151.7z M150.9,221.1c-7.4,0-13.5-6.9-13.5-15.3c0-8.4,5.9-15.3,13.5-15.3
					c7.5,0,13.6,6.9,13.5,15.3C164.4,214.2,158.4,221.1,150.9,221.1z M200.7,221.1c-7.4,0-13.5-6.9-13.5-15.3
					c0-8.4,5.9-15.3,13.5-15.3c7.5,0,13.6,6.9,13.5,15.3C214.2,214.2,208.2,221.1,200.7,221.1z"/>
				<path class="st3" d="M302.3,171.6h32.2c7.8,0,14.3,1.2,19.7,3.7c5.4,2.5,9.4,5.9,12,10.3c2.7,4.4,4,9.5,4,15.1
					c0,5.6-1.4,10.6-4.2,15.1c-2.8,4.5-7,8.1-12.7,10.7c-5.7,2.6-12.7,4-21.2,4h-29.9V171.6z M331.8,215.6c5.2,0,9.2-1.3,12-4
					c2.8-2.7,4.2-6.3,4.2-10.9c0-4.3-1.3-7.7-3.8-10.2c-2.5-2.6-6.3-3.8-11.3-3.8h-10.1v29H331.8z"/>
				<path class="st3" d="M418.4,230.5c-4.5-1.2-8.5-2.9-12-5.1v-14c2.7,2.1,6.3,3.9,10.9,5.3c4.5,1.4,8.9,2.1,13.2,2.1
					c2,0,3.5-0.3,4.5-0.8c1-0.5,1.5-1.2,1.5-1.9c0-0.8-0.3-1.5-0.8-2.1c-0.6-0.6-1.6-1-3.2-1.4l-9.9-2.3c-5.7-1.3-9.7-3.2-12.1-5.6
					c-2.4-2.4-3.6-5.5-3.6-9.4c0-3.3,1-6.1,3.1-8.5c2.1-2.4,5.1-4.3,8.9-5.6c3.9-1.3,8.4-2,13.5-2c4.6,0,8.9,0.5,12.7,1.5
					c3.9,1,7,2.3,9.6,3.9v13.2c-2.6-1.6-5.6-2.8-9-3.8c-3.4-0.9-6.9-1.4-10.4-1.4c-5.2,0-7.8,0.9-7.8,2.7c0,0.8,0.4,1.5,1.2,1.9
					c0.8,0.4,2.3,0.9,4.4,1.3l8.3,1.5c5.4,1,9.4,2.6,12,5c2.6,2.4,4,5.9,4,10.6c0,5.1-2.2,9.2-6.6,12.2c-4.4,3-10.6,4.5-18.6,4.5
					C427.5,232.3,422.9,231.7,418.4,230.5z"/>
				<path class="st3" d="M476.8,228.7c-4.7-2.4-8.3-5.6-10.7-9.6s-3.6-8.6-3.6-13.7c0-5.1,1.2-9.6,3.7-13.6c2.5-4,6.1-7.1,10.9-9.4
					c4.8-2.3,10.5-3.4,17.2-3.4c8.3,0,15.1,1.8,20.6,5.3v15.4c-1.9-1.3-4.2-2.4-6.7-3.3c-2.6-0.8-5.3-1.3-8.2-1.3
					c-5.1,0-9.1,1-12,2.9c-2.9,1.9-4.3,4.4-4.3,7.5c0,3,1.4,5.5,4.2,7.5c2.8,1.9,6.9,2.9,12.2,2.9c2.7,0,5.5-0.4,8.1-1.2
					c2.7-0.8,5-1.8,6.9-3v14.9c-6,3.7-13.1,5.6-21,5.6C487.3,232.3,481.6,231.1,476.8,228.7z"/>
				<path class="st3" d="M535.5,228.7c-4.8-2.4-8.4-5.6-10.9-9.7c-2.5-4.1-3.8-8.7-3.8-13.7c0-5.1,1.2-9.6,3.8-13.5
					c2.5-4,6.1-7.1,10.9-9.3c4.7-2.3,10.4-3.4,16.9-3.4c6.5,0,12.2,1.1,16.9,3.4s8.3,5.3,10.8,9.3c2.5,3.9,3.7,8.5,3.7,13.6
					c0,5.1-1.2,9.6-3.7,13.7c-2.5,4.1-6.1,7.3-10.9,9.7c-4.8,2.4-10.4,3.5-16.9,3.5C545.9,232.3,540.2,231.1,535.5,228.7z
					 M560.6,213.8c2-2,3-4.8,3-8.1c0-3.4-1-6.1-3-8c-2-2-4.7-3-8.2-3c-3.5,0-6.3,1-8.3,3c-2,2-3,4.7-3,8c0,3.4,1,6.1,3,8.1
					c2,2,4.8,3.1,8.3,3.1C555.8,216.8,558.6,215.8,560.6,213.8z"/>
				<path class="st3" d="M633.4,182.2v18.2c-2.1-1.4-4.8-2.1-8.2-2.1c-4.4,0-7.8,1.4-10.2,4.1c-2.4,2.7-3.5,7-3.5,12.7v15.5h-20.2
					v-49.3h19.8v15.7c1.1-5.7,2.9-10,5.3-12.7c2.4-2.7,5.6-4.1,9.4-4.1C628.8,180.2,631.3,180.8,633.4,182.2z"/>
				<path class="st3" d="M700.6,169.9v60.7h-20.2v-11c-1.7,4.2-4.3,7.3-7.8,9.5c-3.5,2.2-7.8,3.2-12.9,3.2c-4.6,0-8.6-1.1-12-3.4
					c-3.4-2.3-6-5.4-7.9-9.4c-1.8-4-2.8-8.4-2.8-13.5c-0.1-5.2,0.9-9.8,2.9-13.9c2-4.1,4.8-7.3,8.5-9.6c3.7-2.3,7.8-3.5,12.5-3.5
					c9.6,0,16.1,4.3,19.4,12.8v-22H700.6z M677.3,213.4c2.1-2,3.1-4.7,3.1-8c0-3.1-1-5.7-3-7.7c-2-2-4.8-3-8.2-3c-3.4,0-6.1,1-8.2,3
					c-2,2-3.1,4.6-3.1,7.8c0,3.2,1,5.8,3.1,7.8c2,2,4.7,3,8.1,3C672.5,216.5,675.3,215.5,677.3,213.4z"/>
				<path class="st3" d="M387.3,186.5c5.6,0,10.1-4.1,10.1-9.2c0-5.1-4.5-9.2-10.1-9.2c-5.6,0-10.1,4.1-10.1,9.2
					C377.2,182.4,381.7,186.5,387.3,186.5z"/>
				<path class="st3" d="M377.2,192.9c6.2,2.7,13.8,2.8,20.2,0v38h-20.2V192.9z"/>
			</g>
		</g>
	</g>
</g>
</svg>
